<?xml version="1.0" encoding="UTF-8" standalone="no"?>
<!-- Created with Inkscape (http://www.inkscape.org/) -->

<svg
   width="100mm"
   height="100mm"
   viewBox="0 0 100 100"
   version="1.1"
   id="svg1"
   xml:space="preserve"
   inkscape:version="1.4.2 (ebf0e940d0, 2025-05-08)"
   sodipodi:docname="CO3.SVG"
   xmlns:inkscape="http://www.inkscape.org/namespaces/inkscape"
   xmlns:sodipodi="http://sodipodi.sourceforge.net/DTD/sodipodi-0.dtd"
   xmlns:xlink="http://www.w3.org/1999/xlink"
   xmlns="http://www.w3.org/2000/svg"
   xmlns:svg="http://www.w3.org/2000/svg"><sodipodi:namedview
     id="namedview1"
     pagecolor="#505050"
     bordercolor="#ffffff"
     borderopacity="1"
     inkscape:showpageshadow="0"
     inkscape:pageopacity="0"
     inkscape:pagecheckerboard="1"
     inkscape:deskcolor="#505050"
     inkscape:document-units="mm"
     inkscape:zoom="1.502312"
     inkscape:cx="164.08043"
     inkscape:cy="184.04965"
     inkscape:window-width="1920"
     inkscape:window-height="1000"
     inkscape:window-x="0"
     inkscape:window-y="0"
     inkscape:window-maximized="1"
     inkscape:current-layer="layer1" /><defs
     id="defs1"><linearGradient
       id="linearGradient15"
       inkscape:collect="always"><stop
         style="stop-color:#3b82f6;stop-opacity:1;"
         offset="0"
         id="stop14" /><stop
         style="stop-color:#3b82f6;stop-opacity:0;"
         offset="1"
         id="stop15" /></linearGradient><linearGradient
       id="linearGradient13"
       inkscape:collect="always"><stop
         style="stop-color:#3b82f6;stop-opacity:1;"
         offset="0"
         id="stop12" /><stop
         style="stop-color:#3b82f6;stop-opacity:0;"
         offset="1"
         id="stop13" /></linearGradient><linearGradient
       id="linearGradient11"
       inkscape:collect="always"><stop
         style="stop-color:#3b82f6;stop-opacity:1;"
         offset="0"
         id="stop10" /><stop
         style="stop-color:#3b82f6;stop-opacity:0;"
         offset="1"
         id="stop11" /></linearGradient><linearGradient
       id="linearGradient9"
       inkscape:collect="always"><stop
         style="stop-color:#3b82f6;stop-opacity:1;"
         offset="0"
         id="stop8" /><stop
         style="stop-color:#3b82f6;stop-opacity:0;"
         offset="1"
         id="stop9" /></linearGradient><linearGradient
       id="linearGradient2"
       inkscape:collect="always"><stop
         style="stop-color:#010084;stop-opacity:1;"
         offset="0"
         id="stop1" /><stop
         style="stop-color:#0b0084;stop-opacity:0;"
         offset="1"
         id="stop2" /></linearGradient><linearGradient
       id="linearGradient50"
       inkscape:collect="always"><stop
         style="stop-color:#840001;stop-opacity:1;"
         offset="0"
         id="stop50" /><stop
         style="stop-color:#840001;stop-opacity:0;"
         offset="1"
         id="stop51" /></linearGradient><radialGradient
       inkscape:collect="always"
       xlink:href="#linearGradient50"
       id="radialGradient60"
       cx="49.781349"
       cy="25.854027"
       fx="49.781349"
       fy="25.854027"
       r="30.350085"
       gradientTransform="matrix(1.4912818,0.03070895,-0.02731368,1.326812,-27.150072,-12.372659)"
       gradientUnits="userSpaceOnUse" /><radialGradient
       inkscape:collect="always"
       xlink:href="#linearGradient9"
       id="radialGradient1"
       gradientUnits="userSpaceOnUse"
       gradientTransform="matrix(1.4912818,0.03070895,-0.02731368,1.326812,-27.150072,-12.372659)"
       cx="49.781349"
       cy="25.854027"
       fx="49.781349"
       fy="25.854027"
       r="30.350085" /><radialGradient
       inkscape:collect="always"
       xlink:href="#linearGradient15"
       id="radialGradient2"
       gradientUnits="userSpaceOnUse"
       gradientTransform="matrix(1.4912818,0.03070895,-0.02731368,1.326812,-27.150072,-12.372659)"
       cx="49.781349"
       cy="25.854027"
       fx="49.781349"
       fy="25.854027"
       r="30.350085" /><radialGradient
       inkscape:collect="always"
       xlink:href="#linearGradient13"
       id="radialGradient3"
       gradientUnits="userSpaceOnUse"
       gradientTransform="matrix(1.4912818,0.03070895,-0.02731368,1.326812,-27.150072,-12.372659)"
       cx="49.781349"
       cy="25.854027"
       fx="49.781349"
       fy="25.854027"
       r="30.350085" /><radialGradient
       inkscape:collect="always"
       xlink:href="#linearGradient50"
       id="radialGradient4"
       gradientUnits="userSpaceOnUse"
       gradientTransform="matrix(1.4912818,0.03070895,-0.02731368,1.326812,-27.150072,-12.372659)"
       cx="49.781349"
       cy="25.854027"
       fx="49.781349"
       fy="25.854027"
       r="30.350085" /><radialGradient
       inkscape:collect="always"
       xlink:href="#linearGradient11"
       id="radialGradient5"
       gradientUnits="userSpaceOnUse"
       gradientTransform="matrix(1.4912818,0.03070895,-0.02731368,1.326812,-27.150072,-12.372659)"
       cx="49.781349"
       cy="25.854027"
       fx="49.781349"
       fy="25.854027"
       r="30.350085" /><radialGradient
       inkscape:collect="always"
       xlink:href="#linearGradient2"
       id="radialGradient6"
       gradientUnits="userSpaceOnUse"
       gradientTransform="matrix(1.4912818,0.03070895,-0.02731368,1.326812,-27.150072,-12.372659)"
       cx="49.781349"
       cy="25.854027"
       fx="49.781349"
       fy="25.854027"
       r="30.350085" /></defs><g
     inkscape:label="Logo"
     inkscape:groupmode="layer"
     id="layer1"
     transform="translate(4.05,2.0001108)"><g
       id="g11"
       style="display:inline;fill:#270000;fill-opacity:1"
       transform="matrix(1.6226984,0,0,1.6226984,-28.613009,-29.889512)"><path
         id="path1"
         style="display:inline;opacity:1;fill:#0e173f;fill-opacity:1;stroke-width:0.223292"
         d="m 45.999776,19.999813 a 26,26 0 0 0 -25.999963,26.00048 26,26 0 0 0 4.426603,14.456482 c 1.527599,-1.158794 3.121242,-2.868908 4.389396,-4.358907 a 20,20 0 0 1 -2.559017,-9.698633 20,20 0 0 1 19.999813,-20.00033 20,20 0 0 1 20.00033,20.00033 20,20 0 0 1 -2.189531,9.096086 c 1.09466,1.324441 2.53462,2.94201 3.992005,4.21938 A 26,26 0 0 0 71.99974,46.000293 26,26 0 0 0 45.999776,19.999813 Z M 59.111637,61.640682 A 20,20 0 0 1 46.256608,66.399048 20,20 0 0 1 33.900773,62.067013 c -1.510503,1.662488 -2.976333,3.008962 -4.282426,4.065384 a 26,26 0 0 0 16.381429,5.867859 26,26 0 0 0 17.103866,-6.428031 c -1.244179,-1.056841 -2.602898,-2.358 -3.992005,-3.931543 z" /><path
         id="path2"
         style="display:inline;opacity:1;fill:#0e173f;fill-opacity:1;stroke-width:0.279907"
         d="m 46.500004,29.500008 a 17,17 0 0 0 -0.03772,0.0026 h 0.07597 a 17,17 0 0 0 -0.03824,-0.0026 z m -2.222603,0.159164 a 17,17 0 0 0 -14.777393,16.840832 17,17 0 0 0 1.476913,6.902938 c 0.02976,-0.04039 0.19792,-0.258899 0.19792,-0.258899 z m 4.878772,0.06563 13.004374,23.309688 A 17,17 0 0 0 63.5,46.500004 17,17 0 0 0 49.156173,29.724801 Z m -2.457731,12.12019 c -0.372677,0.671081 -1.239543,2.009092 -2.803447,4.664832 a 6.25,6.25 0 0 1 2.818433,-0.686263 6.25,6.25 0 0 1 2.768823,0.654223 C 47.928797,43.84128 47.068317,42.512229 46.698442,41.844992 Z M 40.508639,52.47225 c -0.285305,0.515064 -0.482147,0.851205 -0.793234,1.419035 -1.215144,2.218018 -2.521821,4.151452 -3.838525,5.837887 A 17,17 0 0 0 46.500004,63.5 17,17 0 0 0 57.370658,59.543652 c -1.264998,-1.640196 -2.517829,-3.513744 -3.68608,-5.646167 -0.290894,-0.530974 -0.473231,-0.841771 -0.741556,-1.326534 a 6.25,6.25 0 0 1 -6.229594,5.752621 6.25,6.25 0 0 1 -6.204789,-5.851322 z" /><ellipse
         style="display:inline;opacity:1;fill:#0e173f;fill-opacity:1;stroke-width:0.266334"
         id="path3"
         cx="46.750008"
         cy="52.25"
         rx="3.7500076"
         ry="3.75" /></g><path
       id="path11"
       style="display:inline;opacity:1;fill:#0e173f;fill-opacity:1;stroke-width:0.428691"
       d="m 35.464563,39.236863 c -3.84593,6.730033 -7.424677,13.637456 -11.554244,20.205206 -4.033123,5.076444 -8.210077,10.394512 -14.0375064,13.495354 -1.8277281,0.853101 -4.5140826,0.764359 -5.3897589,2.918392 -0.5545815,1.779589 1.2891269,3.088863 2.825157,3.397046 2.1038642,0.623314 4.3144243,-0.184118 5.9339343,-1.552218 6.050082,-3.972629 11.431858,-9.48315 15.583725,-15.423856 3.837291,-5.475854 6.712804,-11.539122 10.154461,-17.258725 2.26874,-3.921804 4.667822,-7.779028 6.955708,-11.679327 0.296104,-1.156406 1.892377,-1.236397 2.357984,-0.152128 5.652294,9.092009 10.705044,18.536883 16.256724,27.689863 3.387925,5.100239 7.559918,9.885234 12.298967,13.711133 2.298875,1.771078 4.659977,3.592478 7.305312,4.779353 2.0668,0.337249 4.70791,-0.166951 5.704799,-2.209024 0.476913,-1.633626 -1.029928,-3.000478 -2.52235,-3.274622 C 85.015262,73.204026 82.728464,72.296473 80.885011,70.684171 77.200685,67.777802 74.196258,64.119741 71.218299,60.524119 67.151845,54.948882 64.311491,48.618132 60.802647,42.700028 L 48.934228,21.422044 c -1.08491,-1.223064 -2.232916,-1.625886 -3.536975,0 z"
       sodipodi:nodetypes="ccccccccccccccccccccc" /><g
       id="g14"
       style="fill:#270000;fill-opacity:1"
       transform="matrix(1.6226984,0,0,1.6226984,-28.613009,-29.889456)"><path
         id="path13"
         style="opacity:1;fill:#0e173f;fill-opacity:1;stroke-width:0.300845"
         d="m 71.3,41 0.0882,10 c 0,0 4.893642,-3.505681 4.9118,-5.098246 C 76.284438,44.118786 71.300002,41 71.300002,41 Z m 1.30239,2.813223 c 0.71057,0.58857 1.588044,1.149051 1.891657,2.004637 -0.393424,0.814661 -1.13789,1.451628 -1.857876,2.051551 -0.01122,-1.352117 -0.02252,-2.70407 -0.03378,-4.056188 z" /><path
         id="path13-6"
         style="fill:#0e173f;fill-opacity:1;stroke-width:0.300845"
         d="m 50.999777,71 -10,0.0882 c 0,0 3.505681,4.893642 5.098245,4.9118 1.782969,-0.01556 4.901755,-4.999998 4.901755,-4.999998 z m -2.813223,1.30239 c -0.58857,0.71057 -1.149051,1.588044 -2.004638,1.891657 -0.814661,-0.393424 -1.451628,-1.13789 -2.051551,-1.857876 1.352117,-0.01122 2.70407,-0.02252 4.056189,-0.03378 z" /><path
         id="path14"
         style="opacity:1;fill:#0e173f;fill-opacity:1;stroke-width:0.300845"
         d="m 20.6,41 -0.0882,10 c 0,0 -4.893642,-3.505681 -4.9118,-5.098246 C 15.615562,44.118786 20.599998,41 20.599998,41 Z m -1.30239,2.813223 c -0.71057,0.58857 -1.588044,1.149051 -1.891657,2.004637 0.393424,0.814661 1.13789,1.451628 1.857876,2.051551 0.01122,-1.352117 0.02252,-2.70407 0.03378,-4.056188 z" /></g></g><g
     inkscape:label="Gradient"
     inkscape:groupmode="layer"
     id="g44"
     style="fill:url(#radialGradient60);fill-opacity:1"
     transform="translate(4.0498335,2.0000875)"><g
       id="g50"
       style="fill:url(#radialGradient6);fill-opacity:1"
       transform="matrix(1.6226984,0,0,1.6226984,-28.613112,-29.889471)"><g
         id="g39"
         style="display:inline;fill:url(#radialGradient4);fill-opacity:1"
         transform="translate(0,-3.45e-5)"><path
           id="path38"
           style="display:inline;opacity:1;fill:url(#radialGradient1);fill-opacity:1;stroke-width:0.223292"
           d="M 45.999776,19.999847 A 26,26 0 0 0 20.538798,41.03939 c -0.330549,0.209 -4.923709,3.142836 -4.938717,4.862235 0.01816,1.592565 4.911845,5.098397 4.911845,5.098397 l 0.0016,-0.195853 a 26,26 0 0 0 3.912939,9.65264 c 1.527599,-1.158794 3.121242,-2.868908 4.389396,-4.358907 a 20,20 0 0 1 -2.559017,-9.698632 20,20 0 0 1 19.999813,-20.00033 20,20 0 0 1 20.00033,20.00033 20,20 0 0 1 -2.189531,9.096085 c 1.09466,1.324441 2.53462,2.942011 3.992005,4.219381 a 26,26 0 0 0 3.395141,-8.762773 c 0.354637,-0.256391 4.828254,-3.520285 4.845699,-5.050338 -0.01353,-1.55009 -3.776578,-4.104771 -4.760949,-4.746997 A 26,26 0 0 0 45.999776,19.999847 Z M 19.29753,43.813381 c -0.01126,1.352118 -0.02237,2.703966 -0.03359,4.056083 -0.719986,-0.599923 -1.464343,-1.236893 -1.857767,-2.051554 0.303613,-0.855586 1.180787,-1.415959 1.891357,-2.004529 z m 53.304757,0 c 0.71057,0.58857 1.588261,1.148943 1.891874,2.004529 -0.393424,0.814661 -1.137782,1.451631 -1.857768,2.051554 -0.01122,-1.352117 -0.02285,-2.703965 -0.03411,-4.056083 z M 59.111637,61.640716 A 20,20 0 0 1 46.256608,66.399082 20,20 0 0 1 33.900773,62.067047 c -1.510503,1.662488 -2.976333,3.008963 -4.282426,4.065385 a 26,26 0 0 0 11.69231,5.373832 c 0.865279,1.153938 3.468407,4.478745 4.787304,4.493783 1.436934,-0.01254 3.715389,-3.216523 4.555795,-4.473629 a 26,26 0 0 0 12.449886,-5.954159 c -1.244179,-1.056841 -2.602898,-2.358 -3.992005,-3.931543 z M 48.186723,72.302598 c -0.58857,0.71057 -1.149459,1.587744 -2.005046,1.891357 -0.814661,-0.393424 -1.451631,-1.137781 -2.051554,-1.857767 1.352117,-0.01122 2.704481,-0.02233 4.0566,-0.03359 z" /><path
           id="path39"
           style="display:inline;opacity:1;fill:url(#radialGradient2);fill-opacity:1;stroke-width:0.279907"
           d="m 46.500004,29.500008 a 17,17 0 0 0 -0.03772,0.0026 h 0.07597 a 17,17 0 0 0 -0.03824,-0.0026 z m -2.222603,0.159164 a 17,17 0 0 0 -14.777393,16.840832 17,17 0 0 0 1.476913,6.902938 c 0.02976,-0.04039 0.19792,-0.258899 0.19792,-0.258899 z m 4.878772,0.06563 13.004374,23.309688 A 17,17 0 0 0 63.5,46.500004 17,17 0 0 0 49.156173,29.724801 Z m -2.457731,12.12019 c -0.372677,0.671081 -1.239543,2.009092 -2.803447,4.664832 a 6.25,6.25 0 0 1 2.818433,-0.686263 6.25,6.25 0 0 1 2.768823,0.654223 C 47.928797,43.84128 47.068317,42.512229 46.698442,41.844992 Z M 40.508639,52.47225 c -0.285305,0.515064 -0.482147,0.851205 -0.793234,1.419035 -1.215144,2.218018 -2.521821,4.151452 -3.838525,5.837887 A 17,17 0 0 0 46.500004,63.5 17,17 0 0 0 57.370658,59.543652 c -1.264998,-1.640196 -2.517829,-3.513744 -3.68608,-5.646167 -0.290894,-0.530974 -0.473231,-0.841771 -0.741556,-1.326534 a 6.25,6.25 0 0 1 -6.229594,5.752621 6.25,6.25 0 0 1 -6.204789,-5.851322 z" /><ellipse
           style="display:inline;opacity:1;fill:url(#radialGradient3);fill-opacity:1;stroke-width:0.266334"
           id="ellipse39"
           cx="46.750008"
           cy="52.25"
           rx="3.7500076"
           ry="3.75" /></g><path
         id="path40"
         style="display:inline;opacity:1;fill:url(#radialGradient5);fill-opacity:1;stroke-width:0.264184"
         d="m 39.488281,42.599609 c -2.370083,4.147433 -4.575513,8.404184 -7.120389,12.451609 -2.485442,3.128396 -5.059521,6.405695 -8.650718,8.316612 -1.126351,0.52573 -2.781837,0.471042 -3.321479,1.798481 -0.341765,1.096685 0.794434,1.903535 1.741024,2.093455 1.296522,0.384122 2.658796,-0.113464 3.656831,-0.956566 3.728408,-2.448162 7.044968,-5.844062 9.603587,-9.505066 2.364759,-3.374536 4.136815,-7.11107 6.257762,-10.635818 1.398128,-2.416841 2.87658,-4.793884 4.286507,-7.197472 0.182476,-0.712644 1.166191,-0.761939 1.453125,-0.09375 3.483268,5.603018 6.597063,11.423492 10.018327,17.064084 2.087834,3.14306 4.658856,6.091849 7.57933,8.449588 1.416699,1.09144 2.871746,2.213891 4.501953,2.945312 1.273681,0.207832 2.901285,-0.102885 3.515625,-1.361328 0.293901,-1.006734 -0.634701,-1.849067 -1.554417,-2.01801 C 70.024268,63.532126 68.615012,62.97284 67.47897,61.979247 65.208477,60.188175 63.356976,57.933868 61.521787,55.718039 59.015804,52.282258 57.265415,48.380886 55.103064,44.73381 L 47.789062,31.621094 c -0.668584,-0.753722 -1.376051,-1.001964 -2.179687,0 z"
         sodipodi:nodetypes="ccccccccccccccccccccc" /></g></g></svg>
